<?xml version="1.0" encoding="UTF-8"?>
<svg id="_레이어_1" data-name="레이어_1" xmlns="http://www.w3.org/2000/svg" version="1.1" viewBox="0 0 500 500">
  <path fill="#48a1f0" d="M217.96,370v16h16v-16c2.63.24,9-1.37,9,2.5v36.5h-9v-16h-16v16c-2.22-.26-7.33.83-8.56-.94-1.93-2.77.44-30.8-.3-36.42.91-2.78,6.41-1.35,8.86-1.64Z"/>
  <path fill="#48a1f0" d="M430.46,370c3.92.81,8.19,4.91,9.09,8.95,1.96,8.79-6.77,13.41-6.47,15.37.23,1.47,9.95,13.73,8.87,14.68-2.39-.47-8.09.8-9.79-.2-1.44-.85-5.42-10.66-7.15-12.34-5.17-5.03-5.55,1.42-5.93,5.18-.16,1.64.14,7.12-.12,7.38-.35.35-6.53-.26-8,0v-39c5.71.8,14.2-1.09,19.5,0ZM418.96,388.01c5.24-.18,12.12,1.65,12.11-5.51,0-3.4-1.41-5.52-4.82-6.28-10.06-2.26-6.92,4.72-7.29,11.79Z"/>
  <path fill="#48a1f0" d="M81.85,370.12l14.11,38.87c-12.82,2.02-7.66-2.86-11.89-8.38-.67-.87-13.15-1.02-13.97-.49-1.67,1.08-.5,13.46-12.13,8.86l14.5-37.99c1.55-1.87,6.89-.88,9.39-.88ZM77.95,380c-1.63-1.74-1.69.54-2.08,1.41-.6,1.33-4.38,12.14-3.9,12.59h9c.91-.92-2.38-13.32-3.02-14Z"/>
  <path fill="#48a1f0" d="M391.79,370.18c1.76,1.08,12.56,34.07,14.16,38.82-11.76,2.44-8.21-4.69-11.46-8.03-1.75-1.79-13.36-1.86-14.99,1.08-3.1,5.6.16,8.23-10.54,6.95l13.47-38.02c.94-1.28,8.18-1.52,9.36-.8ZM391.96,394l-.45-4.04-4.54-10.94-4.01,14.99h9Z"/>
  <path fill="#48a1f0" d="M270.85,370.12l14.11,38.87c-2.33-.27-6.02.71-8.01-.49-2.19-1.32-2.4-7.61-4.62-8.38-1.15-.39-12.76-.46-13.26-.02-.35.31-2.21,8.05-3.27,8.72-1.4.88-6.73-.27-8.84.16l14.49-38c1.56-1.87,6.89-.88,9.39-.88ZM270.96,394c1.14-1.16-3.78-12.79-4.5-14.99-1.84,1.79-5.61,13.87-4.51,14.99h9.01Z"/>
  <path fill="#48a1f0" d="M350.73,369.26c3.84-.48,15.3,1.59,15.27,6.25,0,1.32-2.54,4.13-3.68,4.34-1.29.24-5.45-2.54-7.97-2.79-15.18-1.49-15.56,26.14.11,25.01,3.55-.26,9.74-6.08,11.37-.35,1.49,5.27-8.33,8.14-12.41,8.31-23.59,1.03-26.74-37.79-2.68-40.78Z"/>
  <path fill="#48a1f0" d="M315.96,370l-.13,6.87c-1.19,1.94-11.87-1.63-11.87,1.63v30.5h-8v-30.5c0-2.38-9.87-1.3-12.01-1.49v-7.01h32.01Z"/>
  <path fill="#48a1f0" d="M203.96,370v7.01c-.91.92-10.51-1.62-11.31,1.2l-.69,30.79c-1.61.1-8,.41-8-1.5v-30.5h-11.01s0-7,0-7h31Z"/>
  <path fill="#48a1f0" d="M108.96,370v32h16v7h-23.5c-.11,0-1.5-1.39-1.5-1.5v-36c0-2.08,7.33-1.5,9-1.5Z"/>
  <path fill="#48a1f0" d="M155.96,402v7h-25v-39c2.45.29,7.95-1.15,8.86,1.64,2.1,6.41-1.79,19.49-.91,26.91.12,1.01.45,3.45,1.55,3.45h15.5Z"/>
  <g>
    <path fill="#48a1f0" d="M265.96,296h-48c7.97-53.2-67.69-56.68-65.47-2.95-.77,1.34-4.27-.16-5.5-.58-19.58-6.81-32.91-27.59-34.07-47.92-2.12-36.93,34.67-66.44,70.04-53.54.74-3.21,1.84-8.33,3.11-11.2,4.45-10.05,16.01-23.74,25.17-30.03,52.64-36.17,121.14,4,117.72,66.23,3.78.23,7.73-.35,11.49,0,51.34,4.84,51.83,75.64.89,79.86-15.02,1.24-8.26-1.58-9.49-12.26-3.25-28.18-39.59-40.09-58.3-17.52-1.94,2.34-7.59,11.92-7.59,14.41v15.5ZM208.96,206h100c1.94-24.2-16.77-45.76-39.94-50.56-31.55-6.53-60.93,18.43-60.06,50.56Z"/>
    <circle fill="#48a1f0" cx="185.62" cy="288.12" r="26.87"/>
    <circle fill="#48a1f0" cx="298.71" cy="288.01" r="26.78"/>
    <circle fill="#8ac8f2" cx="339.06" cy="134.41" r="18.59"/>
    <circle fill="#8ac8f2" cx="294.02" cy="105.75" r="15.8"/>
    <circle fill="#8ac8f2" cx="356.9" cy="175.45" r="11.18"/>
    <circle fill="#8ac8f2" cx="378.63" cy="123.47" r="7.34"/>
  </g>
</svg>
